HIERARCHY
ROOT Hips
{
    OFFSET 0.000000 0.000000 0.000000
    CHANNELS 6 Xposition Yposition Zposition Zrotation Xrotation Yrotation
    JOINT Spine
    {
        OFFSET -0.000000 7.236184 0.000000
        CHANNELS 3 Zrotation Xrotation Yrotation
        JOINT Spine1
        {
            OFFSET -0.000000 20.420147 0.000000
            CHANNELS 3 Zrotation Xrotation Yrotation
            JOINT Neck
            {
                OFFSET -0.000000 20.336288 1.848754
                CHANNELS 3 Zrotation Xrotation Yrotation
                JOINT Head
                {
                    OFFSET -0.000000 12.354461 -1.764923
                    CHANNELS 3 Zrotation Xrotation Yrotation
                    End Site
                    {
                        OFFSET -0.000000 22.061537 0.000000
                    }
                }
            }
            JOINT LeftShoulder
            {
                OFFSET 3.573296 18.396038 -0.314103
                CHANNELS 3 Zrotation Xrotation Yrotation
                JOINT LeftArm
                {
                    OFFSET 10.880760 0.000000 0.000000
                    CHANNELS 3 Zrotation Xrotation Yrotation
                    JOINT LeftForeArm
                    {
                        OFFSET 27.185530 0.000000 0.000000
                        CHANNELS 3 Zrotation Xrotation Yrotation
                        JOINT LeftHand
                        {
                            OFFSET 27.825975 0.000000 0.000000
                            CHANNELS 3 Zrotation Xrotation Yrotation
                            End Site
                            {
                                OFFSET 13.236923 0.000000 0.000000
                            }
                        }
                    }
                }
            }
            JOINT RightShoulder
            {
                OFFSET -3.474926 18.396038 -0.314103
                CHANNELS 3 Zrotation Xrotation Yrotation
                JOINT RightArm
                {
                    OFFSET -10.880760 0.000000 0.000000
                    CHANNELS 3 Zrotation Xrotation Yrotation
                    JOINT RightForeArm
                    {
                        OFFSET -27.185530 0.000000 0.000000
                        CHANNELS 3 Zrotation Xrotation Yrotation
                        JOINT RightHand
                        {
                            OFFSET -27.825975 0.000000 0.000000
                            CHANNELS 3 Zrotation Xrotation Yrotation
                            End Site
                            {
                                OFFSET -13.236923 0.000000 0.000000
                            }
                        }
                    }
                }
            }
        }
    }
    JOINT LeftUpLeg
    {
        OFFSET 8.824615 0.000000 0.000000
        CHANNELS 3 Zrotation Xrotation Yrotation
        JOINT LeftLeg
        {
            OFFSET -0.000000 -35.111282 0.000000
            CHANNELS 3 Zrotation Xrotation Yrotation
            JOINT LeftFoot
            {
                OFFSET -0.000000 -42.324711 0.000000
                CHANNELS 3 Zrotation Xrotation Yrotation
                JOINT LeftToeBase
                {
                    OFFSET -0.000000 -5.735999 13.236923
                    CHANNELS 3 Zrotation Xrotation Yrotation
                    End Site
                    {
                        OFFSET -0.000000 0.000000 3.529846
                    }
                }
            }
        }
    }
    JOINT RightUpLeg
    {
        OFFSET -8.824615 0.000000 0.000000
        CHANNELS 3 Zrotation Xrotation Yrotation
        JOINT RightLeg
        {
            OFFSET -0.000000 -35.111282 0.000000
            CHANNELS 3 Zrotation Xrotation Yrotation
            JOINT RightFoot
            {
                OFFSET -0.000000 -42.324711 0.000000
                CHANNELS 3 Zrotation Xrotation Yrotation
                JOINT RightToeBase
                {
                    OFFSET -0.000000 -5.735999 13.236923
                    CHANNELS 3 Zrotation Xrotation Yrotation
                    End Site
                    {
                        OFFSET -0.000000 0.000000 3.529846
                    }
                }
            }
        }
    }
}
MOTION
Frames:    11
Frame Time:    0.008333
4.154092    83.571030    104.976784    4.373487    -7.972085    -160.693802    -2.155556    -17.275551    -1.246073    0.980025    9.210196    -0.997605    0.178151    12.452482    -6.699656    9.090817    -13.525113    -4.641401    -2.656798    18.039770    0.836469    -43.102966    43.110130    -43.755058    2.106417    -5.407958    -23.615541    17.610033    -4.664312    1.976152    7.881117    20.566992    -7.765135    43.716785    45.231743    33.855919    -1.612069    -10.475060    13.779969    -18.829390    -9.762117    -3.191953    7.484545    -17.859993    0.654014    0.914848    21.303413    4.905907    -6.880687    -9.294690    -11.785669    -0.597539    -0.185260    0.662572    -2.303988    -5.441552    10.881277    3.028324    2.977875    1.079136    -2.234174    -5.566696    -10.629597    -2.206606    -1.058500    2.390063    
4.210243    83.573662    104.989410    4.404500    -8.007583    -160.662308    -2.160568    -17.244646    -1.245170    0.990668    9.172680    -0.997052    0.164115    12.416060    -6.672824    9.026823    -13.502951    -4.631160    -2.660073    18.068563    0.825086    -43.161556    43.145214    -43.622211    2.090498    -5.325347    -23.412254    17.535091    -4.599308    1.916233    7.868664    20.555096    -7.736009    43.660831    45.252979    33.921841    -1.613474    -10.524427    13.796049    -18.892889    -9.809645    -3.190525    7.534081    -17.929384    0.648449    0.909303    21.297174    4.921812    -6.883161    -9.257046    -11.803830    -0.616808    -0.204865    0.683961    -2.259720    -5.507525    10.826572    3.036886    2.986074    1.085157    -2.258507    -5.558204    -10.614199    -2.209338    -1.066241    2.393049    
4.265227    83.576248    105.001747    4.435213    -8.042334    -160.631500    -2.165124    -17.214573    -1.244371    1.001344    9.136300    -0.996649    0.150115    12.379960    -6.646339    8.963543    -13.481090    -4.621030    -2.663528    18.096813    0.814068    -43.220047    43.178833    -43.490623    2.074045    -5.244339    -23.209379    17.464102    -4.535476    1.858573    7.856471    20.543612    -7.707457    43.606152    45.273262    33.985592    -1.614078    -10.573633    13.811598    -18.953949    -9.857017    -3.190179    7.582803    -17.997982    0.643148    0.903790    21.291948    4.938342    -6.885209    -9.220206    -11.821796    -0.635659    -0.224133    0.704889    -2.216194    -5.571937    10.771685    3.045320    2.993642    1.092098    -2.282129    -5.549796    -10.599119    -2.212189    -1.073998    2.396163    
4.321308    83.578888    105.014297    4.467246    -8.077699    -160.600021    -2.169202    -17.184273    -1.243759    1.012895    9.099885    -0.996595    0.135056    12.342776    -6.618934    8.898257    -13.458741    -4.610440    -2.667233    18.126137    0.802675    -43.282051    43.211422    -43.353477    2.055463    -5.161139    -22.995544    17.397888    -4.469732    1.801764    7.843761    20.532429    -7.677846    43.551540    45.292896    34.048615    -1.613394    -10.625680    13.826788    -19.013790    -9.907097    -3.191765    7.632961    -18.069281    0.637803    0.898035    21.288633    4.957060    -6.886683    -9.182823    -11.840452    -0.654674    -0.243920    0.726002    -2.171153    -5.637290    10.712334    3.053617    3.000477    1.100702    -2.305566    -5.540947    -10.582619    -2.215482    -1.081996    2.399756    
4.375801    83.581444    105.026474    4.499416    -8.112054    -160.569183    -2.172373    -17.155312    -1.243405    1.025108    9.065314    -0.997059    0.119262    12.305570    -6.591824    8.833651    -13.436526    -4.599902    -2.671311    18.155315    0.791472    -43.345253    43.240944    -43.216175    2.034828    -5.079473    -22.777807    17.343227    -4.405060    1.749205    7.831436    20.522594    -7.648713    43.499592    45.310261    34.107296    -1.610623    -10.678915    13.840574    -19.068647    -9.958311    -3.196179    7.682380    -18.140747    0.632329    0.891948    21.288399    4.978336    -6.887058    -9.146659    -11.858981    -0.672864    -0.263553    0.746199    -2.126471    -5.700401    10.649613    3.061311    3.006127    1.111383    -2.327430    -5.532178    -10.565203    -2.219279    -1.090309    2.403896    
4.429235    83.583923    105.038383    4.532328    -8.145733    -160.538239    -2.174500    -17.127575    -1.243560    1.038183    9.032693    -0.998155    0.102000    12.267196    -6.564686    8.769390    -13.413599    -4.589204    -2.675509    18.184650    0.780523    -43.411457    43.267357    -43.076370    2.011594    -4.998491    -22.551857    17.301601    -4.340785    1.700645    7.818974    20.513727    -7.619458    43.451202    45.325443    34.161140    -1.605316    -10.734582    13.852515    -19.118505    -10.011804    -3.204456    7.731611    -18.213770    0.626508    0.885492    21.292231    5.003191    -6.886280    -9.111457    -11.877841    -0.690358    -0.283077    0.765627    -2.081606    -5.761735    10.581709    3.068697    3.010097    1.124812    -2.347883    -5.523126    -10.546779    -2.223735    -1.098870    2.408753    
4.481766    83.586349    105.050072    4.566466    -8.178866    -160.506439    -2.175553    -17.101156    -1.244273    1.052658    9.002029    -1.000028    0.083041    12.227612    -6.537458    8.704810    -13.390076    -4.578449    -2.680342    18.214424    0.769587    -43.481392    43.290134    -42.932350    1.985203    -4.918108    -22.315538    17.274582    -4.276953    1.656222    7.806707    20.506121    -7.589788    43.406498    45.337814    34.209324    -1.596867    -10.793666    13.862138    -19.162960    -10.068429    -3.217714    7.780981    -18.289543    0.619627    0.878196    21.301132    5.033041    -6.883900    -9.077057    -11.897142    -0.707100    -0.302799    0.784222    -2.035926    -5.821509    10.506684    3.075309    3.012688    1.141068    -2.366593    -5.514132    -10.526522    -2.228943    -1.107356    2.414421    
4.532996    83.588646    105.061470    4.601990    -8.211181    -160.473129    -2.175349    -17.076189    -1.245624    1.068567    8.973609    -1.002902    0.062430    12.186799    -6.510376    8.640116    -13.366213    -4.567798    -2.685509    18.244495    0.758959    -43.555916    43.308582    -42.784199    1.955411    -4.839124    -22.069159    17.263851    -4.214351    1.616084    7.794656    20.500498    -7.560106    43.365978    45.347084    34.251923    -1.584975    -10.856664    13.868654    -19.201691    -10.128593    -3.237057    7.830252    -18.368454    0.611234    0.869877    21.316162    5.068682    -6.879827    -9.043712    -11.916891    -0.722651    -0.322741    0.801498    -1.989360    -5.879157    10.423591    3.081000    3.013398    1.159682    -2.383236    -5.504959    -10.503843    -2.235050    -1.116443    2.421067    
4.582737    83.590805    105.072548    4.639184    -8.242537    -160.437332    -2.173874    -17.052956    -1.247716    1.086208    8.947835    -1.006842    0.039745    12.144530    -6.483692    8.575881    -13.341892    -4.557355    -2.691146    18.274635    0.748969    -43.635216    43.322735    -42.631699    1.922459    -4.762738    -21.813631    17.269686    -4.154086    1.580320    7.782518    20.496141    -7.530129    43.331196    45.353664    34.287205    -1.569539    -10.924303    13.871688    -19.234276    -10.192792    -3.263752    7.879523    -18.451090    0.600590    0.859835    21.338039    5.111429    -6.873696    -9.011356    -11.937127    -0.736864    -0.342543    0.817291    -1.941968    -5.934372    10.332315    3.086013    3.012362    1.181298    -2.397910    -5.495977    -10.480436    -2.242014    -1.125621    2.428642    
4.631349    83.592804    105.083405    4.678789    -8.273105    -160.397522    -2.170914    -17.030964    -1.250660    1.105650    8.924154    -1.011871    0.015102    12.100315    -6.457405    8.511292    -13.317086    -4.547328    -2.696985    18.305395    0.739670    -43.721416    43.331841    -42.472885    1.885916    -4.689117    -21.546974    17.292822    -4.096530    1.548134    7.770696    20.494009    -7.499752    43.301987    45.356445    34.315990    -1.549854    -10.997751    13.870384    -19.261499    -10.262102    -3.299086    7.929135    -18.539150    0.587030    0.847925    21.368122    5.162830    -6.865441    -8.979716    -11.958429    -0.749762    -0.362934    0.831628    -1.892666    -5.987653    10.230367    3.089750    3.009768    1.205020    -2.410262    -5.487169    -10.454559    -2.249940    -1.135401    2.437260    
4.678546    83.594582    105.094017    4.721052    -8.302685    -160.352356    -2.166539    -17.010544    -1.254406    1.127141    8.902898    -1.018159    -0.011751    12.054094    -6.431917    8.447064    -13.291723    -4.537955    -2.703075    18.336679    0.731401    -43.815063    43.335396    -42.307579    1.846061    -4.620002    -21.271620    17.333261    -4.043293    1.519679    7.759010    20.494051    -7.468988    43.279480    45.355507    34.337395    -1.525945    -11.077809    13.864293    -19.282982    -10.337114    -3.344372    7.979096    -18.633251    0.569634    0.833151    21.407152    5.224277    -6.854603    -8.948709    -11.980551    -0.761015    -0.383632    0.844141    -1.841516    -6.038641    10.117660    3.092291    3.005693    1.230822    -2.420321    -5.478817    -10.427478    -2.258809    -1.145118    2.446901    
